# xmcd CD database file
#
# Track frame offsets:
#	150
#	24242
#	48515
#	65886
#	78945
#	96201
#	124115
#	148792
#	164243
#	180898
#	213232
#	231102
#	251377
#	288033
#	312109
#	324200
#	340123
#
# Disc length: 4790 seconds
#
# Revision: 2
# Processed by: cddbd v1.5.2PL0 Copyright (c) Steve Scherf et al.
# Submitted via: CDex 1.50
#
DISCID=e612b411
DTITLE=Verschiedene - Battle of Trumpets CD03
DYEAR=2004
DGENRE=Jazz
TTITLE0=Sometimes I'm happy (Gillespie, Dizzy - Eldridge, Roy)
TTITLE1=Dig (Davis, Miles)
TTITLE2=I Love You (Dorham, Kenny)
TTITLE3=All the Things You Are (Baker, Chet)
TTITLE4=I'Ve Never Been in Love (Farmer, Art)
TTITLE5=My Heart Stood Still (Rogers, Shorty)
TTITLE6=Please Say Yes (Bailey, Benny)
TTITLE7=Cherokee (Brown, Clifford)
TTITLE8=Easy Living (Brown, Clifford)
TTITLE9=Winterset (Byrd, Donald)
TTITLE10=Alone Together (Farmer, Art)
TTITLE11=the Leap (Davis, Miles)
TTITLE12=a Kiss to Build a Dream On (Bailey, Benny)
TTITLE13=Blues Way Up There (Rogers, Shorty)
TTITLE14=Happy Little Sunbeam (Baker, Chet)
TTITLE15=Be My Love (Dorham, Kenny)
TTITLE16=Daahoud (17 Brown, Clifford)
EXTD=YEAR: 2004
EXTT0=
EXTT1=
EXTT2=
EXTT3=
EXTT4=
EXTT5=
EXTT6=
EXTT7=
EXTT8=
EXTT9=
EXTT10=
EXTT11=
EXTT12=
EXTT13=
EXTT14=
EXTT15=
EXTT16=
PLAYORDER=
